<?xml version="1.0" standalone="no"?>
<!DOCTYPE svg PUBLIC "-//W3C//DTD SVG 20010904//EN"
 "http://www.w3.org/TR/2001/REC-SVG-20010904/DTD/svg10.dtd">
<svg version="1.0" xmlns="http://www.w3.org/2000/svg"
 width="357.000000pt" height="357.000000pt" viewBox="0 0 357.000000 357.000000"
 preserveAspectRatio="xMidYMid meet">
<metadata>
Created by potrace 1.14, written by Peter Selinger 2001-2017
</metadata>
<g transform="translate(0.000000,357.000000) scale(0.100000,-0.100000)"
fill="#000000" stroke="none">
<path d="M1570 3525 c-117 -20 -131 -23 -202 -44 -426 -123 -805 -476 -967
-901 -28 -75 -69 -236 -78 -312 -12 -96 -9 -385 5 -458 7 -36 14 -77 17 -92
30 -161 167 -439 285 -583 95 -114 264 -265 341 -304 38 -19 82 -6 103 30 31
52 16 80 -87 163 -106 84 -204 185 -270 278 -26 36 -47 68 -47 71 0 2 -16 31
-35 63 -74 123 -137 326 -152 489 -15 173 -3 308 45 505 25 101 112 274 200
400 140 198 359 366 600 459 348 133 741 106 1078 -74 57 -31 109 -61 116 -68
7 -7 36 -30 63 -51 173 -135 334 -354 409 -557 25 -70 70 -229 80 -289 3 -19
8 -44 11 -55 44 -202 146 -699 152 -742 5 -42 4 -45 -59 -111 -104 -110 -102
-105 -108 -407 -4 -227 -7 -264 -23 -288 -36 -56 -57 -61 -231 -65 -101 -2
-180 -8 -212 -17 -108 -31 -209 -129 -240 -231 -18 -64 -24 -211 -10 -255 13
-40 56 -60 102 -48 41 11 51 40 57 156 6 97 14 121 56 166 48 52 78 60 254 62
137 2 171 6 217 24 89 34 158 110 188 206 5 17 10 122 10 235 1 113 2 222 2
243 0 32 9 47 70 113 56 60 73 86 86 132 20 65 16 90 -51 407 -20 94 -42 202
-50 240 -8 39 -30 144 -49 235 -35 171 -60 261 -97 352 -23 59 -119 250 -128
258 -3 3 -28 38 -56 79 -65 97 -227 260 -333 335 -79 56 -257 153 -312 170
-14 5 -29 10 -35 12 -22 8 -151 45 -170 48 -11 2 -38 7 -60 11 -22 4 -49 10
-60 12 -50 12 -355 10 -425 -2z"/>
<path d="M1958 2717 c-11 -13 -46 -93 -78 -178 -32 -84 -90 -242 -130 -349
-40 -107 -87 -235 -105 -285 -18 -49 -62 -169 -99 -265 -75 -201 -82 -229 -66
-260 16 -30 72 -52 102 -41 35 13 41 23 98 176 29 77 68 181 87 230 19 50 44
115 55 145 11 30 24 64 28 75 4 11 14 36 20 55 7 19 19 49 25 65 60 143 205
551 205 573 0 69 -97 109 -142 59z"/>
<path d="M1252 2419 c-21 -8 -52 -34 -147 -124 -18 -16 -77 -72 -133 -123
-150 -139 -150 -144 28 -302 40 -36 104 -94 143 -130 91 -85 121 -104 152 -96
30 8 57 37 66 69 11 43 -10 68 -248 281 l-43 40 53 50 c30 28 93 86 140 130
96 87 113 118 90 162 -8 16 -17 32 -21 35 -14 13 -58 17 -80 8z"/>
<path d="M2241 2403 c-12 -10 -24 -35 -28 -56 -6 -37 -3 -41 63 -105 38 -37
105 -100 149 -139 l80 -73 -25 -21 c-37 -32 -221 -201 -242 -224 -40 -42 -33
-98 16 -130 36 -24 74 -12 132 43 28 26 100 92 160 147 149 136 164 153 164
189 0 32 -15 48 -209 226 -57 52 -109 100 -115 105 -62 57 -107 69 -145 38z"/>
</g>
</svg>
