<?xml version="1.0" encoding="UTF-8"?>
<svg id="SVGDoc" width="236" height="236" xmlns="http://www.w3.org/2000/svg" version="1.1" xmlns:xlink="http://www.w3.org/1999/xlink" xmlns:avocode="https://avocode.com/" viewBox="0 0 236 236"><defs></defs><desc>Generated with Avocode.</desc><g><g><title>Shape</title><path d="M71.50003,92.99865c20.52864,0 -0.0135,0 71.49994,0c0,24.8394 0,52.53983 0,71.49982c0,39.48784 -32.01164,71.49982 -71.49994,71.49982c-39.48841,0 -71.50005,-32.01199 -71.50005,-71.49982c0,-39.48879 32.01164,-71.49982 71.50005,-71.49982z" fill="#676cdb" fill-opacity="1"></path></g><g><title>Shape</title><path d="M164.49998,142.99884c-20.52864,0 0.0135,0 -71.49994,0c0,-24.84035 0,-52.54078 0,-71.49982c0,-39.48975 32.01164,-71.50078 71.49994,-71.50078c39.48841,0 71.50005,32.01103 71.50005,71.50078c0,39.48784 -32.01164,71.49982 -71.50005,71.49982z" fill="#3aafc9" fill-opacity="1"></path></g></g></svg>