<?xml version="1.0" encoding="UTF-8"?>
<svg id="SVGDoc" width="411" height="538" xmlns="http://www.w3.org/2000/svg" version="1.1" xmlns:xlink="http://www.w3.org/1999/xlink" xmlns:avocode="https://avocode.com/" viewBox="0 0 411 538"><defs></defs><desc>Generated with Avocode.</desc><g><g><title>Shape</title><path d="M160.7718,152.02386c50.07374,0 90.66662,40.60173 90.66662,90.68584c0,50.08411 -40.59288,90.68394 -90.66662,90.68394" fill="#ff8059" fill-opacity="1"></path></g><g><title>Shape</title><path d="M342.00558,348.98908c0,50.26436 -40.51735,91.01009 -90.49747,91.01009c-49.98058,0 -90.49793,-40.74574 -90.49793,-91.01009" fill="#b9d1e4" fill-opacity="1"></path></g><g><title>Shape</title><path d="M1.00003,537.99875v-150.00057c0,-38.6591 31.3401,-69.99969 69.99996,-69.99969c38.65997,0 69.99996,31.3406 69.99996,69.99969v150.00057" fill="#3aafc9" fill-opacity="1"></path></g><g><title>Shape</title><path d="M272.00002,-0.00136v0h138.99994v0v328.99952v0h-138.99994v0z" fill="#676cdb" fill-opacity="1"></path></g><g><title>Shape</title><path d="M71.49998,154.99837c39.48841,0 71.50005,32.01103 71.50005,71.49982c0,39.48879 -32.01164,71.50078 -71.50005,71.50078c-39.4883,0 -71.49994,-32.01199 -71.49994,-71.50078c0,-39.48879 32.01164,-71.49982 71.49994,-71.49982z" fill="#ffd041" fill-opacity="1"></path></g></g></svg>